<svg width="1171" height="321" viewBox="0 0 1171 321" fill="none" xmlns="http://www.w3.org/2000/svg">
<path d="M415 320C415 319.869 415.024 319.738 415.073 319.617C415.121 319.495 415.193 319.385 415.282 319.292C415.372 319.199 415.479 319.125 415.597 319.075C415.714 319.025 415.84 319 415.967 319H946.033C946.289 319 946.535 319.105 946.717 319.293C946.898 319.48 947 319.735 947 320C947 320.265 946.898 320.52 946.717 320.707C946.535 320.895 946.289 321 946.033 321H415.967C415.84 321 415.714 320.975 415.597 320.925C415.479 320.875 415.372 320.801 415.282 320.708C415.193 320.615 415.121 320.505 415.073 320.383C415.024 320.262 415 320.131 415 320Z" fill="#CCCCCC"/>
<g clip-path="url(#clip0_604_744)">
<path d="M1001.65 30.9543C1006.78 39.831 997.119 54.7878 1006.86 57.8936L1006.06 57.088C1000.18 49.8276 1012.46 34.4604 1006.59 27.2C1005.67 26.1349 1004.89 24.9647 1004.25 23.7139" fill="#2F2E41"/>
<path d="M953.592 161.183C953.424 160.295 953.452 159.38 953.673 158.504C953.895 157.627 954.306 156.81 954.876 156.111C955.446 155.411 956.162 154.845 956.974 154.453C957.785 154.061 958.673 153.853 959.573 153.842L972.258 116.838L979.279 125.824L965.868 160.401C965.785 161.921 965.149 163.357 964.082 164.439C963.014 165.52 961.589 166.17 960.076 166.266C958.563 166.363 957.067 165.899 955.872 164.962C954.677 164.025 953.866 162.68 953.592 161.183L953.592 161.183Z" fill="#FFB8B8"/>
<path d="M1009.35 71.8393C1009.35 71.8393 1009.75 58.4442 997.816 66.1177C985.887 73.7913 959.913 145.673 959.913 145.673L972.839 152.695L1002.18 86.9149L1009.35 71.8393Z" fill="#6C63FF"/>
<path d="M974.156 301.423L980.113 303.979L992.766 282.124L983.974 278.352L974.156 301.423Z" fill="#FFB6B6"/>
<path d="M966.601 310.437L970.873 312.27L973.359 308.548L973.588 313.435L984.918 318.297C985.462 318.53 986.065 318.583 986.64 318.447C987.215 318.312 987.731 317.995 988.115 317.544C988.498 317.093 988.727 316.53 988.77 315.939C988.812 315.347 988.665 314.758 988.35 314.256L981.972 304.099L983.714 300.005L973.955 296.492L966.601 310.437Z" fill="#2F2E41"/>
<path d="M1067.54 308.836L1074.01 308.519L1075.87 283.309L1066.32 283.777L1067.54 308.836Z" fill="#FFB6B6"/>
<path d="M1064.67 320.26L1069.31 320.032L1069.92 315.593L1072.26 319.887L1084.57 319.284C1085.16 319.255 1085.72 319.037 1086.18 318.663C1086.64 318.288 1086.96 317.777 1087.11 317.203C1087.26 316.629 1087.22 316.022 1087 315.472C1086.78 314.921 1086.39 314.456 1085.89 314.143L1075.73 307.81L1075.52 303.363L1065.21 304.49L1064.67 320.26Z" fill="#2F2E41"/>
<path d="M876.896 304.819C876.467 304.835 876.044 304.718 875.684 304.484C875.324 304.25 875.044 303.911 874.882 303.512C874.721 303.113 874.685 302.674 874.78 302.254C874.875 301.834 875.097 301.454 875.415 301.165C875.469 300.955 875.509 300.804 875.563 300.594C875.163 299.544 874.46 298.638 873.544 297.993C872.628 297.347 871.541 296.99 870.421 296.969C869.302 296.948 868.202 297.263 867.263 297.873C866.323 298.484 865.586 299.362 865.147 300.396C862.612 306.198 859.347 312.198 860.882 318.63C850.556 296.103 854.404 268.24 870.161 249.21C874.488 246.87 878.018 242.672 878.973 237.769C876.835 238.473 874.195 236.708 875.819 234.47C876.521 233.615 877.231 232.767 877.933 231.913C869.922 223.18 860.15 236.69 868.947 248.457C865.998 252.098 863.436 256.038 861.303 260.214C861.829 255.763 861.295 251.251 859.745 247.048C858.171 243.13 855.182 239.814 852.554 236.414C849.36 232.272 842.687 234.105 842.202 239.318C845.177 240.332 845.524 244.664 842.104 245.223C842.906 254.937 849.137 263.917 857.793 268.256C854.496 277.274 853.15 286.894 853.847 296.475C852.418 285.272 840.482 282.442 832.164 277.916C831.635 277.568 831.017 277.382 830.385 277.381C829.752 277.38 829.134 277.564 828.604 277.91C828.074 278.256 827.656 278.75 827.4 279.33C827.145 279.911 827.064 280.554 827.166 281.18C828.315 281.662 829.414 282.258 830.446 282.958C830.93 283.291 831.299 283.767 831.503 284.319C831.707 284.871 831.736 285.473 831.586 286.042C831.436 286.612 831.114 287.12 830.665 287.499C830.215 287.877 829.661 288.107 829.076 288.157C833.191 298.669 844.02 305.806 855.21 305.873C856.241 310.576 857.756 315.158 859.73 319.546L876.338 319.705C876.4 319.52 876.455 319.329 876.51 319.144C874.972 319.227 873.43 319.12 871.917 318.826C876.031 314.029 879.199 311.592 876.896 304.819L876.896 304.819Z" fill="#F2F2F2"/>
<path d="M848.847 289.941C849.806 289.974 850.752 289.73 851.558 289.242C852.364 288.754 852.99 288.046 853.351 287.214C853.713 286.382 853.793 285.465 853.58 284.589C853.367 283.713 852.872 282.919 852.161 282.316C852.038 281.878 851.95 281.563 851.828 281.125C852.723 278.935 854.296 277.045 856.346 275.697C858.395 274.35 860.828 273.606 863.331 273.562C865.835 273.517 868.296 274.174 870.399 275.448C872.501 276.722 874.15 278.554 875.133 280.711C880.802 292.818 888.107 305.338 884.674 318.758C907.775 271.754 899.165 213.618 863.914 173.911C854.233 169.029 846.336 160.271 844.2 150.04C848.982 151.51 854.888 147.826 851.256 143.156C849.685 141.373 848.098 139.604 846.526 137.82C864.449 119.601 886.312 147.789 866.629 172.34C873.227 179.937 878.958 188.159 883.73 196.871C882.554 187.585 883.749 178.17 887.217 169.4C890.739 161.225 897.426 154.306 903.304 147.213C910.451 138.571 925.38 142.396 926.464 153.272C919.809 155.387 919.033 164.425 926.683 165.593C924.889 185.861 910.95 204.597 891.583 213.652C898.961 232.468 901.971 252.54 900.413 272.531C903.61 249.156 930.312 243.252 948.922 233.806C950.105 233.081 951.488 232.693 952.903 232.691C954.317 232.689 955.701 233.073 956.887 233.795C958.072 234.517 959.008 235.547 959.579 236.758C960.15 237.97 960.333 239.311 960.104 240.618C957.533 241.624 955.074 242.867 952.765 244.328C951.683 245.023 950.857 246.015 950.401 247.167C949.944 248.319 949.879 249.575 950.215 250.763C950.551 251.951 951.271 253.012 952.276 253.802C953.281 254.592 954.523 255.071 955.83 255.174C946.624 277.109 922.398 292 897.363 292.141C895.056 301.952 891.668 311.513 887.251 320.669L850.094 321C849.957 320.615 849.833 320.217 849.709 319.831C853.15 320.003 856.601 319.779 859.984 319.166C850.783 309.158 843.693 304.073 848.846 289.942L848.847 289.941Z" fill="#F2F2F2"/>
<path d="M1051.19 144.96C1051.19 144.96 1064.35 180.965 1064.56 184.994C1064.78 189.024 1068.53 239.975 1071.67 242.936C1074.82 245.896 1084.44 291.794 1076.96 295.384C1069.47 298.974 1045.85 293.027 1045.85 293.027L1037.63 238.81L1034.84 197.274C1034.84 197.274 1026.35 295.085 1010.93 294.797C995.521 294.51 976.74 288.616 976.74 288.616L998.312 229.382C998.312 229.382 998.007 159.255 1003.01 145.111C1008.01 130.967 1051.19 144.96 1051.19 144.96Z" fill="#2F2E41"/>
<path d="M1012.15 52.1973L1029.77 53.8179L1032.61 62.5678C1032.61 62.5678 1047.36 70.6997 1044.09 74.394C1040.83 78.0884 1044.82 102.985 1044.82 102.985L1043.92 123.194C1043.92 123.194 1044.89 137.195 1047.79 140.421C1050.69 143.647 1058.28 151.558 1052.92 147.773C1034.11 134.503 1001.25 145.7 1001.25 145.7L1005.94 116.824C1005.94 116.824 995.278 69.5472 999.486 65.5544C1003.7 61.5617 1007.67 61.057 1007.67 61.057L1012.15 52.1973Z" fill="#6C63FF"/>
<path d="M1104.74 143.792C1103.86 143.627 1103.02 143.268 1102.28 142.742C1101.55 142.216 1100.94 141.535 1100.5 140.747C1100.06 139.96 1099.79 139.084 1099.73 138.182C1099.66 137.281 1099.79 136.375 1100.1 135.529L1070.38 110.211L1081.27 106.91L1108.48 132.025C1109.86 132.656 1110.96 133.772 1111.57 135.164C1112.19 136.555 1112.27 138.125 1111.81 139.575C1111.35 141.026 1110.38 142.256 1109.08 143.033C1107.77 143.811 1106.23 144.081 1104.74 143.792Z" fill="#FFB8B8"/>
<path d="M1029.26 77.5674C1029.26 77.5674 1023.41 65.5251 1037.42 67.5821C1051.44 69.6392 1104.6 124.393 1104.6 124.393L1095.71 136.138L1041.98 88.3382L1029.26 77.5674Z" fill="#6C63FF"/>
<path d="M1052.09 57.1411L1107.67 128.639C1108.63 129.88 1109.07 131.453 1108.87 133.014C1108.68 134.574 1107.88 135.995 1106.65 136.964C1093.74 168.433 1055.13 191.768 1009.7 212.949C1008.47 213.915 1006.9 214.35 1005.35 214.157C1003.79 213.965 1002.38 213.161 1001.41 211.923L945.831 140.424C944.868 139.184 944.435 137.61 944.627 136.05C944.819 134.489 945.619 133.068 946.853 132.099C984.973 110.486 1017.74 85.4449 1043.8 56.1152C1045.04 55.1497 1046.6 54.7156 1048.16 54.9079C1049.71 55.1002 1051.13 55.9033 1052.09 57.1411Z" fill="#E6E6E6"/>
<path d="M949.732 138.797L966.65 160.561C976.985 173.775 992.107 182.346 1008.71 184.401C1025.32 186.456 1042.06 181.828 1055.29 171.529L1102.7 134.369C1103.4 133.818 1103.86 133.01 1103.97 132.122C1104.08 131.234 1103.83 130.339 1103.28 129.632L1049.58 60.5433C1049.03 59.8391 1048.22 59.3826 1047.34 59.274C1046.45 59.1654 1045.56 59.4136 1044.86 59.964C1020.87 91.0612 988.769 115.261 950.313 134.065C949.611 134.616 949.157 135.423 949.048 136.31C948.939 137.198 949.185 138.092 949.732 138.797Z" fill="white"/>
<path d="M1053.2 96.1722L1064.22 110.346C1064.51 110.721 1064.94 110.965 1065.41 111.023C1065.88 111.081 1066.36 110.949 1066.73 110.655C1067.1 110.362 1067.35 109.932 1067.41 109.459C1067.46 108.986 1067.33 108.509 1067.04 108.133L1056.02 93.9596C1055.88 93.7732 1055.7 93.6173 1055.49 93.5007C1055.29 93.3841 1055.06 93.3092 1054.83 93.2802C1054.6 93.2512 1054.36 93.2687 1054.13 93.3317C1053.91 93.3947 1053.69 93.5019 1053.51 93.6473C1053.32 93.7926 1053.17 93.9733 1053.05 94.1789C1052.94 94.3845 1052.86 94.611 1052.83 94.8455C1052.8 95.08 1052.82 95.3178 1052.89 95.5455C1052.95 95.7731 1053.05 95.9861 1053.2 96.1722H1053.2Z" fill="#CCCCCC"/>
<path d="M1032.53 85.6587L1056.73 116.785C1056.87 116.971 1057.05 117.127 1057.26 117.243C1057.46 117.359 1057.69 117.434 1057.92 117.463C1058.16 117.492 1058.39 117.474 1058.62 117.411C1058.85 117.348 1059.06 117.241 1059.24 117.096C1059.43 116.951 1059.58 116.77 1059.7 116.565C1059.82 116.359 1059.89 116.133 1059.92 115.898C1059.95 115.664 1059.93 115.426 1059.87 115.199C1059.8 114.971 1059.7 114.758 1059.55 114.572L1035.36 83.446C1035.21 83.2594 1035.03 83.1033 1034.83 82.9866C1034.62 82.8698 1034.4 82.7947 1034.16 82.7656C1033.93 82.7365 1033.69 82.754 1033.47 82.8169C1033.24 82.8799 1033.03 82.9872 1032.84 83.1326C1032.66 83.2781 1032.5 83.4588 1032.38 83.6645C1032.27 83.8703 1032.19 84.0969 1032.17 84.3315C1032.14 84.5662 1032.15 84.8041 1032.22 85.0319C1032.28 85.2596 1032.39 85.4726 1032.53 85.6587H1032.53Z" fill="#CCCCCC"/>
<path d="M1073.8 137.577C1067.29 137.577 1062.01 132.275 1062.01 125.734C1062.01 119.194 1067.29 113.892 1073.8 113.892C1080.31 113.892 1085.6 119.194 1085.6 125.734C1085.6 132.275 1080.31 137.577 1073.8 137.577Z" fill="#6C63FF"/>
<path d="M1031.25 110.259L1060.97 148.488C1061.28 148.806 1061.69 148.997 1062.13 149.026C1062.58 149.055 1063.01 148.92 1063.36 148.647C1063.71 148.374 1063.95 147.981 1064.03 147.543C1064.11 147.106 1064.02 146.655 1063.79 146.276L1034.07 108.047C1033.76 107.729 1033.35 107.538 1032.9 107.509C1032.46 107.48 1032.03 107.615 1031.68 107.888C1031.33 108.161 1031.09 108.554 1031.01 108.992C1030.93 109.429 1031.02 109.88 1031.25 110.259Z" fill="#CCCCCC"/>
<path d="M1011.97 101.531L1053.45 154.889C1053.76 155.206 1054.17 155.398 1054.62 155.427C1055.06 155.456 1055.49 155.321 1055.84 155.048C1056.19 154.774 1056.43 154.382 1056.51 153.944C1056.59 153.507 1056.5 153.056 1056.27 152.677L1014.79 99.3181C1014.48 99.001 1014.07 98.8095 1013.63 98.7803C1013.18 98.751 1012.75 98.886 1012.4 99.1595C1012.05 99.433 1011.81 99.8258 1011.73 100.263C1011.65 100.7 1011.74 101.152 1011.97 101.531Z" fill="#CCCCCC"/>
<path d="M1012.11 125.256L1041.83 163.485C1042.14 163.803 1042.56 163.994 1043 164.023C1043.44 164.052 1043.88 163.917 1044.23 163.644C1044.58 163.371 1044.81 162.978 1044.89 162.54C1044.97 162.103 1044.89 161.652 1044.66 161.273L1014.94 123.044C1014.63 122.727 1014.21 122.535 1013.77 122.506C1013.33 122.477 1012.89 122.612 1012.54 122.885C1012.19 123.159 1011.96 123.551 1011.88 123.989C1011.8 124.426 1011.88 124.877 1012.11 125.256Z" fill="#CCCCCC"/>
<path d="M972.792 129.97L1002.51 168.199C1002.82 168.516 1003.24 168.708 1003.68 168.737C1004.12 168.766 1004.56 168.631 1004.9 168.358C1005.25 168.084 1005.49 167.691 1005.57 167.254C1005.65 166.817 1005.56 166.366 1005.33 165.987L975.615 127.758C975.305 127.44 974.889 127.249 974.448 127.22C974.006 127.19 973.569 127.325 973.22 127.599C972.871 127.872 972.635 128.265 972.556 128.703C972.477 129.14 972.561 129.591 972.792 129.97Z" fill="#6C63FF"/>
<path d="M992.835 116.528L1034.31 169.886C1034.62 170.203 1035.04 170.395 1035.48 170.424C1035.92 170.453 1036.36 170.318 1036.71 170.045C1037.06 169.771 1037.29 169.378 1037.37 168.941C1037.45 168.504 1037.37 168.053 1037.14 167.674L995.658 114.315C995.348 113.998 994.932 113.807 994.491 113.777C994.049 113.748 993.612 113.883 993.263 114.157C992.914 114.43 992.678 114.823 992.599 115.26C992.52 115.698 992.604 116.149 992.835 116.528Z" fill="#CCCCCC"/>
<path d="M1041.69 29.609C1041.69 32.4858 1040.99 35.3189 1039.65 37.8595C1038.3 40.4002 1036.36 42.5707 1033.98 44.1806C1031.61 45.7905 1028.88 46.7906 1026.03 47.093C1023.18 47.3954 1020.3 46.9908 1017.64 45.9149C1014.99 44.839 1012.63 43.1247 1010.79 40.9223C1008.95 38.7199 1007.67 36.0968 1007.07 33.2834C1006.47 30.4699 1006.57 27.5521 1007.36 24.7861C1008.15 22.02 1009.6 19.4903 1011.59 17.4191L1011.67 17.3348C1011.81 17.1871 1011.95 17.0395 1012.1 16.8989C1012.1 16.8989 1012.1 16.8987 1012.1 16.8984C1012.1 16.898 1012.1 16.8975 1012.1 16.8968C1012.1 16.8962 1012.1 16.8954 1012.1 16.8945C1012.1 16.8937 1012.1 16.8928 1012.1 16.8918C1012.29 16.7231 1012.47 16.5544 1012.66 16.3927C1015.19 14.1662 1018.3 12.7189 1021.63 12.2239C1024.96 11.7289 1028.35 12.2073 1031.42 13.6018C1034.48 14.9963 1037.08 17.2478 1038.9 20.0867C1040.72 22.9256 1041.69 26.2317 1041.69 29.609V29.609Z" fill="#2F2E41"/>
<path d="M1019.88 48.4119C1011.77 48.4119 1005.2 41.8138 1005.2 33.6747C1005.2 25.5356 1011.77 18.9375 1019.88 18.9375C1027.98 18.9375 1034.55 25.5356 1034.55 33.6747C1034.55 41.8138 1027.98 48.4119 1019.88 48.4119Z" fill="#FFB8B8"/>
<path d="M1035.52 37.6031C1036.96 31.1115 1034.88 23.8387 1030.36 19.5049C1028.09 17.3683 1025.26 15.9192 1022.2 15.3242C1019.15 14.7291 1015.98 15.0123 1013.08 16.1412C1012.71 16.2908 1012.34 16.4545 1011.98 16.6254L1011.81 16.7052V16.7299C1011.78 16.7526 1011.75 16.7765 1011.71 16.8007C1011.64 16.8651 1011.56 16.9113 1011.47 16.935C1010.2 16.9016 1008.93 17.1389 1007.75 17.6314C1006.58 18.1239 1005.52 18.8605 1004.64 19.793C1002.37 22.2713 1001.3 26.2765 1001.63 31.0706L1001.64 31.2205L1001.76 31.3003C1003.48 32.3961 1005.27 33.3855 1007.11 34.2629C1013.56 37.305 1019.44 37.8687 1025.09 35.9839L1025.2 35.9494L1027.57 31.9563C1028.06 34.7103 1027.8 43.8454 1030.59 44.3403L1035.46 37.8784L1035.52 37.6031Z" fill="#2F2E41"/>
<path d="M1066.42 50.4341C1061.42 47.8456 1067.85 38.4509 1066.56 32.9581C1065.27 27.4653 1055.97 25.6986 1055.38 20.0864C1054.79 14.4741 1053.39 8.68567 1049.71 4.42706C1047.35 1.7058 1043.88 -0.303122 1040.3 0.0377324C1039.09 0.153056 1037.92 0.528824 1036.87 1.13944C1035.82 1.75006 1034.91 2.58119 1034.2 3.57622C1033.5 4.57124 1033.02 5.70678 1032.79 6.9055C1032.57 8.10423 1032.6 9.33797 1032.89 10.5227C1031.87 9.07433 1029.24 9.38824 1028.58 11.0357C1028 12.5003 1029.29 14.2743 1030.79 14.4039C1032.77 16.8495 1035.02 19.445 1038.11 19.9383C1038.61 20.0518 1039.12 20.0516 1039.61 19.9375C1040.1 19.8234 1040.56 19.5986 1040.95 19.2799C1041.68 18.579 1041.74 17.1776 1040.88 16.6538C1044.76 18.2026 1047.04 22.4181 1047.61 26.5733C1048.19 30.7285 1047.39 34.9328 1046.87 39.0948C1046.34 43.2567 1046.11 47.635 1047.74 51.4999C1049.66 56.0663 1054.08 59.3392 1058.9 60.3888C1063.73 61.4384 1068.87 60.4126 1073.23 58.1014C1077.6 55.7901 1081.24 52.2618 1084.22 48.3061C1079.09 51.9599 1072 53.3287 1066.42 50.4341Z" fill="#2F2E41"/>
<path d="M1026.89 32.7229C1032.02 41.5996 1022.36 56.5563 1032.1 59.6622L1031.29 58.8566C1025.41 51.5961 1037.7 36.229 1031.82 28.9685C1030.91 27.9035 1030.13 26.7333 1029.49 25.4824" fill="#2F2E41"/>
<path d="M1034.84 37.4685C1034.84 37.4685 1030.49 21.1732 1011.85 17.4121C1011.83 17.4052 1011.76 17.377 1011.67 17.3349C1011.61 17.2997 1011.54 17.2645 1011.47 17.2294C1011.68 17.1099 1011.89 17.0045 1012.1 16.8989C1012.1 16.899 1012.1 16.8988 1012.1 16.8984C1012.1 16.8981 1012.1 16.8976 1012.1 16.8969C1012.1 16.8963 1012.1 16.8955 1012.1 16.8946C1012.1 16.8938 1012.1 16.8928 1012.1 16.8919C1012.29 16.7232 1012.47 16.5545 1012.66 16.3928L1013.19 16.4139C1013.19 16.4139 1031.89 13.4403 1034.84 37.4685Z" fill="#FD6584"/>
<path d="M1170.2 320.213C1170.2 320.305 1170.18 320.396 1170.15 320.482C1170.11 320.567 1170.06 320.644 1170 320.709C1169.93 320.775 1169.85 320.826 1169.77 320.861C1169.68 320.896 1169.59 320.914 1169.5 320.914H749.698C749.513 320.914 749.335 320.84 749.204 320.709C749.073 320.577 749 320.399 749 320.213C749 320.027 749.073 319.849 749.204 319.717C749.335 319.586 749.513 319.512 749.698 319.512H1169.5C1169.59 319.511 1169.68 319.529 1169.77 319.565C1169.85 319.6 1169.93 319.651 1170 319.716C1170.06 319.782 1170.11 319.859 1170.15 319.944C1170.18 320.029 1170.2 320.121 1170.2 320.213Z" fill="#CCCCCC"/>
</g>
<g clip-path="url(#clip1_604_744)">
<path d="M456.639 226.216H313.855C304.128 226.216 294.8 229.899 287.923 236.454C281.045 243.01 277.182 251.901 277.182 261.172V319.431H288.687V287.284C288.687 278.013 292.55 269.121 299.428 262.566C306.305 256.01 315.633 252.327 325.36 252.327H445.134C454.86 252.327 464.188 256.01 471.065 262.566C477.943 269.121 481.807 278.013 481.807 287.284V319.431H493.312V261.172C493.312 251.901 489.448 243.01 482.57 236.454C475.693 229.899 466.365 226.216 456.639 226.216Z" fill="#F2F2F2"/>
<path d="M416.475 235.616C437.125 235.616 453.866 233.336 453.866 230.524C453.866 227.712 437.125 225.433 416.475 225.433C395.824 225.433 379.083 227.712 379.083 230.524C379.083 233.336 395.824 235.616 416.475 235.616Z" fill="#E6E6E6"/>
<path d="M444.741 231.801H394.938C382.643 220.57 373.852 209.746 380.89 200.761C380.89 198.179 381.967 195.702 383.883 193.876C385.798 192.049 388.397 191.023 391.106 191.023H448.572C451.282 191.023 453.88 192.049 455.796 193.876C457.712 195.702 458.789 198.179 458.789 200.761C461.468 210.999 456.681 221.347 444.741 231.801Z" fill="#F2F2F2"/>
<path d="M435.797 178.764C435.325 178.785 434.857 178.667 434.457 178.426C434.057 178.184 433.745 177.832 433.563 177.416C433.38 177 433.336 176.54 433.437 176.1C433.537 175.659 433.778 175.259 434.125 174.953L434.283 174.354C434.262 174.306 434.241 174.258 434.22 174.21C433.744 173.138 432.947 172.224 431.927 171.583C430.908 170.942 429.713 170.602 428.492 170.607C427.271 170.611 426.078 170.959 425.064 171.608C424.05 172.256 423.26 173.175 422.792 174.25C420.923 178.541 418.543 182.84 417.957 187.377C417.699 189.382 417.808 191.415 418.279 193.386C413.889 184.257 411.609 174.336 411.594 164.294C411.593 161.774 411.74 159.256 412.034 156.752C412.277 154.699 412.614 152.661 413.045 150.637C415.398 139.657 420.451 129.365 427.787 120.607C431.337 118.76 434.209 115.92 436.014 112.47C436.668 111.23 437.131 109.906 437.387 108.54C436.986 108.59 435.876 102.775 436.179 102.418C435.62 101.611 434.621 101.21 434.012 100.422C430.98 96.5035 426.802 97.1877 424.622 102.512C419.963 104.753 419.918 108.47 422.777 112.045C424.595 114.319 424.845 117.396 426.441 119.831C426.276 120.031 426.106 120.225 425.942 120.425C422.941 124.103 420.325 128.053 418.133 132.217C418.666 127.552 418.03 122.833 416.276 118.447C414.499 114.361 411.167 110.919 408.234 107.386C404.71 103.142 397.485 104.994 396.864 110.374C396.858 110.426 396.852 110.478 396.846 110.53C397.282 110.764 397.709 111.013 398.126 111.276C398.65 111.61 399.056 112.087 399.291 112.645C399.526 113.202 399.579 113.815 399.443 114.401C399.306 114.988 398.987 115.522 398.527 115.933C398.067 116.344 397.487 116.613 396.864 116.704L396.8 116.714C396.956 118.211 397.23 119.694 397.621 121.151C393.858 135.024 401.983 140.077 413.584 140.304C413.84 140.429 414.089 140.554 414.346 140.673C412.143 146.623 410.761 152.822 410.235 159.112C409.937 162.823 409.955 166.551 410.288 170.259L410.268 170.127C409.427 166.004 407.12 162.283 403.734 159.594C398.706 155.657 391.603 154.207 386.179 151.043C385.602 150.69 384.932 150.501 384.247 150.5C383.562 150.498 382.891 150.683 382.312 151.034C381.734 151.384 381.273 151.884 380.983 152.476C380.694 153.068 380.588 153.726 380.678 154.373C380.685 154.419 380.692 154.465 380.7 154.511C381.508 154.825 382.296 155.187 383.057 155.594C383.493 155.828 383.919 156.077 384.337 156.34C384.861 156.674 385.267 157.151 385.502 157.709C385.737 158.267 385.79 158.879 385.653 159.466C385.517 160.052 385.198 160.586 384.738 160.997C384.278 161.408 383.698 161.677 383.075 161.769L383.011 161.778C382.965 161.784 382.926 161.79 382.88 161.797C384.261 164.941 386.201 167.835 388.612 170.353C390.965 182.463 401.072 183.612 411.883 180.085H411.89C413.076 184.999 414.795 189.781 417.018 194.356H435.338C435.404 194.162 435.463 193.961 435.522 193.767C433.826 193.869 432.124 193.772 430.453 193.479C431.812 191.89 433.171 190.287 434.53 188.698C434.561 188.668 434.589 188.636 434.616 188.604C435.305 187.79 436.001 186.983 436.691 186.169L436.691 186.168C436.728 183.674 436.428 181.186 435.798 178.765L435.797 178.764Z" fill="#F2F2F2"/>
<path d="M290.631 231.677L297.202 225.716L276.208 198.723L266.511 207.52L290.631 231.677Z" fill="#FFB6B6"/>
<path d="M284.204 229.332L294.105 219.212L298.385 223.499L314.925 221.015C315.742 220.892 316.578 221.021 317.313 221.384C318.047 221.746 318.641 222.323 319.007 223.03C319.373 223.737 319.492 224.537 319.347 225.313C319.203 226.089 318.802 226.801 318.203 227.344L305.706 238.682L299.317 236.395L302.71 241.399L297.998 245.673L284.204 229.332Z" fill="#2F2E41"/>
<path d="M289.508 211.333L280.469 223.082C272.818 219.197 248.399 203.78 229.695 195.704C217.607 190.472 208.28 186.493 208.28 186.493C208.28 186.493 207.022 188.192 205.017 190.863C197.678 200.655 180.347 223.442 178.695 222.596C176.6 221.522 174.225 223.442 174.52 227.374C174.734 230.241 169.647 232.332 166.87 233.264C165.826 233.609 165.111 233.797 165.111 233.797C164.634 234.087 164.158 234.377 163.689 234.651C148.478 243.51 130.653 241.011 118.409 231.518C114.023 228.145 110.446 223.916 107.918 219.116C105.391 214.315 103.972 209.054 103.756 203.686L102.663 179.404L139.644 177.837L146.226 189.751L157.904 180.68L183.47 160.823L192.805 153.57C192.805 153.57 192.559 153.538 192.855 152.473C194.024 151.869 195.248 151.366 196.512 150.969C196.725 150.899 196.939 150.836 197.153 150.781C209.192 147.397 218.322 156.202 218.322 156.202C218.322 156.202 274.166 192.196 276.36 192.533C278.554 192.878 279.816 196.237 280.079 197.036C280.334 197.788 283.83 202.035 285.4 201.933C290.297 201.627 289.508 211.333 289.508 211.333Z" fill="#2F2E41"/>
<path d="M178.646 138.611C177.616 138.937 176.674 139.476 175.887 140.189C175.1 140.902 174.487 141.772 174.094 142.737L140.184 142.559L122.145 118.776L108.737 124.435L130.56 162.124L178.332 151.966L178.303 151.871C179.41 152.281 180.604 152.431 181.784 152.308C182.964 152.185 184.095 151.794 185.083 151.167C186.071 150.539 186.886 149.694 187.459 148.703C188.032 147.713 188.347 146.605 188.376 145.474C188.405 144.342 188.149 143.221 187.627 142.205C187.106 141.188 186.336 140.306 185.382 139.633C184.427 138.96 183.317 138.516 182.145 138.338C180.973 138.16 179.773 138.254 178.646 138.611L178.646 138.611Z" fill="#FFB6B6"/>
<path d="M115.81 102.569L115.105 102.668C111.427 103.177 108.105 105.04 105.849 107.855C103.594 110.671 102.585 114.217 103.038 117.733C103.582 121.892 103.899 125.614 103.422 126.354C102.249 128.176 101.8 129.703 104.103 129.931C106.406 130.159 101.606 128.816 108.943 129.985C116.28 131.154 114.983 127.438 120.96 127.193C126.937 126.947 130.97 128.418 132.853 125.207C134.735 121.996 139.985 121.865 137.102 118.71C134.218 115.556 133.438 118.28 131.102 111.591C131.078 111.524 131.055 111.458 131.031 111.392C129.977 108.456 127.877 105.966 125.095 104.355C122.314 102.743 119.029 102.111 115.81 102.569Z" fill="#6C63FF"/>
<path d="M96.0119 94.2668C95.1398 95.077 94.2119 95.8307 93.2342 96.5228C92.9466 96.7343 92.659 96.9301 92.3714 97.1103C84.0302 102.492 75.7959 100.189 69.3777 94.5723C59.4587 85.8775 53.887 69.2476 59.0314 60.8035C70.5529 47.4087 85.5094 50.2835 94.5984 59.3857C103.424 68.2136 106.728 82.9087 96.0119 94.2668Z" fill="#F2F2F2"/>
<path d="M132.223 105.42C131.516 104.989 130.809 104.574 130.086 104.174C129.766 103.759 129.437 103.352 129.1 102.952L132.223 105.42Z" fill="#F2F2F2"/>
<path d="M112.073 69.8883C123.017 77.8238 135.205 84.1394 137.502 92.8724C137.502 92.8724 136.126 79.1509 142.545 81.7518C153.331 86.1218 149.682 62.356 146.657 58.4698C141.616 51.9928 124.617 48.3125 124.617 48.3125L112.559 54.6223L112.073 69.8883Z" fill="#2F2E41"/>
<path d="M162.471 317.737C162.695 318.359 163.12 318.897 163.684 319.274C164.249 319.651 164.924 319.847 165.613 319.835L179.078 319.505C179.772 319.492 180.443 319.266 180.991 318.859C181.539 318.452 181.934 317.888 182.118 317.249L184.023 297.829C184.699 298.121 185.435 298.265 186.177 298.25C186.822 298.236 187.458 298.1 188.048 297.851C188.638 297.602 189.17 297.244 189.615 296.799C190.06 296.353 190.409 295.828 190.641 295.255C190.873 294.681 190.984 294.069 190.968 293.454C190.951 292.839 190.808 292.233 190.546 291.671C190.284 291.109 189.909 290.602 189.441 290.178C188.973 289.754 188.422 289.423 187.82 289.202C187.218 288.982 186.575 288.876 185.93 288.892C185.634 288.892 185.338 288.921 185.048 288.98C184.733 288.655 184.349 288.396 183.923 288.22C183.496 288.045 183.035 287.957 182.571 287.961L161.859 288.471C161.688 288.477 161.517 288.497 161.349 288.531C160.894 288.612 160.464 288.785 160.085 289.037C159.707 289.29 159.39 289.617 159.155 289.996C158.92 290.376 158.774 290.799 158.725 291.237C158.676 291.674 158.726 292.117 158.872 292.535L162.471 317.737ZM184.414 296.51L185.769 291.882C185.924 291.348 185.927 290.784 185.78 290.247C185.846 290.247 185.904 290.217 185.969 290.217C186.899 290.199 187.798 290.533 188.47 291.146C189.141 291.758 189.531 292.6 189.553 293.486C189.574 294.372 189.227 295.23 188.586 295.872C187.945 296.514 187.063 296.888 186.134 296.911C185.533 296.929 184.938 296.79 184.414 296.51Z" fill="#CCCCCC"/>
<path d="M161.349 288.532C161.79 290.937 166.751 292.627 172.716 292.334C178.201 292.093 182.687 290.257 183.508 288.081C183.204 287.995 182.888 287.955 182.571 287.962L161.86 288.471C161.688 288.478 161.517 288.498 161.349 288.532Z" fill="white"/>
<path d="M131.13 79.518C141.568 79.518 150.031 71.4518 150.031 61.5017C150.031 51.5515 141.568 43.4854 131.13 43.4854C120.691 43.4854 112.229 51.5515 112.229 61.5017C112.229 71.4518 120.691 79.518 131.13 79.518Z" fill="#FFB6B6"/>
<path d="M124.323 54.6079L123.595 57.6529L136.31 60.4119C136.321 59.7961 136.466 59.1891 136.735 58.6291C137.004 58.0691 137.391 57.5681 137.873 57.1576C137.599 58.3516 137.63 59.591 137.964 60.771C144.821 64.4386 144.427 65.738 149.969 64.8027C150.72 64.9656 151.508 64.8375 152.16 64.4467C152.812 64.0559 153.274 63.4342 153.445 62.7186C155.674 53.3826 156.407 43.8406 146.661 41.5232C144.292 40.9586 141.828 40.8505 139.415 41.2053C137.001 41.56 134.686 42.3705 132.606 43.5892C130.525 44.8079 128.721 46.4103 127.298 48.3024C125.876 50.1945 124.864 52.3382 124.323 54.6079Z" fill="#2F2E41"/>
<path d="M220.84 167.882C220.795 167.83 220.743 167.785 220.685 167.746C220.544 167.59 220.372 167.462 220.179 167.369L218.796 166.663L209.614 156.946C209.082 156.682 208.464 156.626 207.889 156.789L207.866 156.796L203.932 157.955L200.549 158.956L195.824 160.352L163.638 169.852L142.481 176.096C141.909 176.268 141.431 176.648 141.15 177.153C140.869 177.658 140.807 178.248 140.978 178.796C141.077 179.098 141.242 179.377 141.461 179.615L142.134 180.329L143.546 181.828L146.818 188.291L147.725 189.257C148.015 189.564 148.39 189.786 148.807 189.898C149.224 190.01 149.666 190.006 150.081 189.887L219.78 171.412C220.142 171.3 220.47 171.106 220.734 170.845C220.999 170.584 221.192 170.265 221.297 169.916C221.401 169.567 221.414 169.199 221.335 168.845C221.255 168.49 221.085 168.159 220.84 167.882L220.84 167.882Z" fill="#CCCCCC"/>
<path d="M216.702 71.7642L215.352 71.9727C214.982 72.0312 214.651 72.2268 214.432 72.5169L213.837 73.3095L208.473 86.0946C208.255 86.3869 208.167 86.75 208.23 87.1039L208.858 90.7466L206.483 155.766C206.543 156.103 206.732 156.405 207.014 156.615L217.429 169.894L217.672 170.079L218.196 170.47C218.465 170.668 218.799 170.769 219.139 170.756L220.024 170.715C220.225 170.706 220.421 170.656 220.601 170.569C220.78 170.482 220.938 170.36 221.064 170.21C221.191 170.062 221.283 169.889 221.334 169.704C221.385 169.519 221.393 169.326 221.359 169.137L218.338 72.8766C218.277 72.523 218.071 72.2071 217.765 71.9983C217.46 71.7894 217.08 71.7049 216.709 71.7631L216.702 71.7642Z" fill="#CCCCCC"/>
<path d="M214.441 76.8164L209.69 90.6138L207.852 145.723L215.248 151.989L214.441 76.8164Z" fill="#6C63FF"/>
<path d="M120.073 83.9738L114 81.2607L108.02 91.178C108.02 91.178 91.9611 113.022 91.7281 128.781C91.4952 144.54 94.3453 149.226 94.3453 149.226C94.3453 149.226 87.4211 154.16 90.8832 157.177C94.3453 160.193 102.01 161.494 96.1231 162.802C90.2363 164.109 91.7281 177.347 98.3024 179.697C104.877 182.047 140.184 182.026 140.184 182.026C139.867 181 139.843 179.911 140.117 178.873C140.39 177.835 140.949 176.886 141.737 176.124C144.474 173.509 146.94 175.386 144.474 171.314C142.009 167.242 137.9 169.592 141.187 164.109C144.474 158.626 144.473 156.987 144.473 156.987C144.473 156.987 142.711 118.325 132.617 105.137L132.832 104.774C133.168 100.483 132.127 96.1962 129.848 92.4815C127.57 88.7669 124.161 85.7999 120.073 83.9738Z" fill="#6C63FF"/>
<path d="M127.432 66.757C128.055 64.1563 129.275 61.7197 131.005 59.623C132.736 57.5263 134.932 55.8218 137.437 54.6324C139.942 53.443 142.693 52.7984 145.491 52.7451C148.289 52.6918 151.064 53.2312 153.617 54.3242C152.733 51.8366 150.943 49.733 148.572 48.3944L134.261 42.4719C127.202 40.9401 116.027 36.5923 110.928 40.7558C106.23 44.5807 108.516 52.0677 104.191 56.2608C99.4496 60.8561 99.0469 66.2897 100.391 69.4149C101.947 73.0304 105.059 77.9632 108.942 79.0308C109.144 77.7584 109.81 76.5945 110.823 75.7435C110.543 76.9561 110.518 78.2097 110.751 79.4314L134.261 97.3041C132.065 95.4837 130.194 90.7933 128.906 85.5104C128.143 82.3833 123.593 81.2858 127.283 75.9786C130.974 70.6713 126.931 68.8551 127.432 66.757Z" fill="#2F2E41"/>
<path d="M118.647 246.918H126.865V308.8C126.865 309.839 126.432 310.835 125.661 311.57C124.891 312.304 123.846 312.717 122.756 312.717C121.666 312.717 120.621 312.304 119.85 311.57C119.08 310.835 118.647 309.839 118.647 308.8V246.918Z" fill="#F2F2F2"/>
<path d="M94.7979 319.158L106.297 304.621C109.945 300.009 113.444 295.212 117.298 290.763C118.668 289.183 120.259 287.548 122.285 287.071C123.083 286.876 123.923 286.91 124.701 287.168C125.62 287.474 126.468 287.948 127.197 288.562C128.892 290.058 130.313 291.812 131.404 293.752C132.839 296.129 134.166 298.567 135.402 301.043C138.202 306.684 140.479 312.548 142.207 318.567C143.051 321.479 147.809 320.242 146.962 317.318C145.251 311.43 143.048 305.682 140.374 300.13C139.072 297.419 137.655 294.762 136.123 292.159C134.848 289.847 133.24 287.717 131.347 285.829C129.432 283.9 126.88 282.656 124.119 282.306C121.156 281.998 118.408 283.271 116.208 285.058C113.998 286.854 112.338 289.229 110.602 291.423L104.486 299.156L90.5404 316.786C89.7382 317.8 90.3706 319.413 91.4249 320.001C91.993 320.301 92.6604 320.381 93.2886 320.224C93.9167 320.067 94.4572 319.685 94.798 319.158H94.7979Z" fill="#F2F2F2"/>
<path d="M173.707 162.319C172.621 162.318 171.548 162.546 170.565 162.986C169.582 163.425 168.713 164.067 168.02 164.863L135.905 154.486L126.67 126.49L112.073 127.823L120.291 170.153L168.983 174.896L168.988 174.797C169.902 175.519 170.985 176.021 172.145 176.26C173.305 176.498 174.509 176.468 175.654 176.17C176.799 175.872 177.853 175.316 178.725 174.548C179.597 173.781 180.262 172.824 180.665 171.76C181.067 170.695 181.195 169.554 181.037 168.433C180.88 167.311 180.441 166.242 179.759 165.316C179.076 164.391 178.17 163.635 177.117 163.113C176.064 162.592 174.894 162.319 173.707 162.319L173.707 162.319Z" fill="#FFB6B6"/>
<path d="M126.028 109.206L125.328 109.088C121.669 108.464 117.899 109.231 114.826 111.223C111.753 113.216 109.621 116.276 108.886 119.749C108.024 123.859 107.092 127.486 106.394 128.045C104.677 129.42 103.745 130.733 105.854 131.643C107.964 132.553 103.855 129.833 110.429 133.152C117.003 136.47 117.003 132.553 122.756 134.12C128.508 135.686 131.848 138.296 134.698 135.816C137.548 133.337 142.573 134.792 140.882 130.931C139.192 127.07 137.548 129.42 137.548 122.37C137.548 122.3 137.548 122.229 137.548 122.159C137.52 119.057 136.352 116.062 134.247 113.696C132.143 111.329 129.234 109.741 126.028 109.206Z" fill="#6C63FF"/>
<path d="M352.375 242.666C370.303 242.666 384.836 240.386 384.836 237.574C384.836 234.762 370.303 232.482 352.375 232.482C334.448 232.482 319.915 234.762 319.915 237.574C319.915 240.386 334.448 242.666 352.375 242.666Z" fill="#E6E6E6"/>
<path d="M385.004 208.167C385.017 215.644 382.181 222.87 377.024 228.503C375.739 229.916 374.319 231.213 372.783 232.377C370.452 234.161 367.872 235.627 365.118 236.734H339.872C337.117 235.627 334.537 234.161 332.207 232.377C330.67 231.213 329.25 229.916 327.965 228.503C326.456 226.847 325.133 225.044 324.018 223.124C321.697 219.107 320.339 214.649 320.044 210.072C319.748 205.495 320.522 200.912 322.31 196.655C324.098 192.397 326.855 188.571 330.381 185.452C333.908 182.333 338.118 179.998 342.706 178.618C347.293 177.237 352.146 176.844 356.912 177.467C361.679 178.09 366.241 179.714 370.269 182.221C374.298 184.729 377.692 188.057 380.208 191.966C382.723 195.875 384.297 200.267 384.816 204.827C384.943 205.936 385.006 207.051 385.004 208.167Z" fill="#3F3D56"/>
<path d="M377.024 228.504C375.739 229.917 374.319 231.214 372.783 232.377H332.207C330.67 231.214 329.25 229.917 327.965 228.504H377.024Z" fill="#6C63FF"/>
<path d="M384.816 204.827C378.025 214.873 365.524 222.669 350.305 225.036C341.511 226.462 332.484 225.805 324.018 223.124C321.697 219.107 320.339 214.649 320.044 210.072C319.748 205.495 320.522 200.912 322.31 196.655C324.098 192.397 326.854 188.571 330.381 185.452C333.908 182.333 338.118 179.998 342.706 178.618C347.293 177.237 352.146 176.844 356.912 177.467C361.679 178.09 366.241 179.714 370.269 182.221C374.298 184.729 377.692 188.057 380.208 191.966C382.723 195.875 384.297 200.267 384.816 204.827Z" fill="#6C63FF"/>
<path d="M278.968 252.153L286.172 246.898L268.337 217.914L257.705 225.67L278.968 252.153Z" fill="#FFB6B6"/>
<path d="M272.842 249.165L283.824 240.115L287.598 244.815L304.322 244.036C305.148 243.998 305.965 244.212 306.654 244.647C307.343 245.083 307.869 245.717 308.153 246.457C308.437 247.198 308.466 248.005 308.235 248.762C308.004 249.519 307.525 250.185 306.868 250.664L293.167 260.659L287.073 257.733L289.884 263.054L284.718 266.822L272.842 249.165Z" fill="#2F2E41"/>
<path d="M280.141 231.811L269.832 242.569C262.662 237.924 240.119 220.099 222.432 210.158C211.002 203.719 202.176 198.809 202.176 198.809C202.176 198.809 200.735 200.371 198.441 202.822C190.043 211.806 170.247 232.689 168.7 231.679C166.737 230.398 164.16 232.063 164.012 236.003C163.901 238.876 158.609 240.435 155.742 241.078C154.666 241.314 153.934 241.427 153.934 241.427C153.427 241.667 152.921 241.906 152.424 242.131C136.304 249.384 118.863 245.077 107.757 234.386C103.776 230.585 100.696 226.014 98.7232 220.983C96.7506 215.952 95.9315 210.576 96.3213 205.217L97.9672 180.963L134.911 183.186L140.114 195.705L152.745 187.88L180.398 170.752L190.496 164.494C190.496 164.494 190.255 164.438 190.669 163.409C191.899 162.928 193.173 162.553 194.474 162.288C194.694 162.239 194.914 162.199 195.132 162.166C207.483 160.033 215.569 169.72 215.569 169.72C215.569 169.72 267.041 211.216 269.184 211.776C271.327 212.343 272.204 215.812 272.375 216.633C272.544 217.407 275.542 221.986 277.114 222.045C282.018 222.242 280.141 231.811 280.141 231.811Z" fill="#2F2E41"/>
<path d="M113.738 259.374C106.005 243.598 49.6137 258.849 45.9075 224.376C44.8885 214.341 52.7776 205.67 60.2723 198.557C113.582 163.418 9.49404 137.451 49.9342 102.758C56.0757 99.3481 62.5972 96.6025 69.3777 94.572C78.7379 91.9479 85.7231 92.4335 91.0154 95.1751C91.786 95.5761 92.5273 96.0262 93.2342 96.5225C116.425 112.855 102.397 178.841 126.739 199.333C136.008 206.304 177.007 219.809 183.59 230.337C183.764 230.62 183.92 230.913 184.058 231.214C186.311 235.346 135.501 246.602 139.682 256.28C145.434 269.597 113.241 289.011 113.738 259.374Z" fill="#F2F2F2"/>
<path d="M4.33049e-06 320.068C-0.00037868 320.19 0.0246484 320.312 0.0736613 320.425C0.122674 320.538 0.194688 320.641 0.285579 320.728C0.376469 320.814 0.484453 320.883 0.603279 320.93C0.722105 320.977 0.849449 321 0.977984 321H537.022C537.281 321 537.53 320.902 537.714 320.727C537.897 320.552 538 320.315 538 320.068C538 319.821 537.897 319.584 537.714 319.409C537.53 319.234 537.281 319.136 537.022 319.136H0.977934C0.849405 319.135 0.722048 319.159 0.603229 319.206C0.48441 319.253 0.376463 319.321 0.285579 319.408C0.194694 319.495 0.122673 319.597 0.0736613 319.711C0.0246499 319.824 -0.000374285 319.945 4.33049e-06 320.068Z" fill="#CCCCCC"/>
<path d="M158.583 176.738C158.583 181.713 162.99 191.264 137.216 191.264C111.443 191.264 65.2483 181.713 65.2483 176.738C65.2483 171.763 86.1419 167.729 111.916 167.729C137.689 167.729 158.583 171.763 158.583 176.738Z" fill="#F2F2F2"/>
</g>
<defs>
<clipPath id="clip0_604_744">
<rect width="421.2" height="320.914" fill="white" transform="matrix(-1 0 0 1 1170.2 0)"/>
</clipPath>
<clipPath id="clip1_604_744">
<rect width="538" height="282" fill="white" transform="translate(0 39)"/>
</clipPath>
</defs>
</svg>
